<mxfile host="app.diagrams.net" modified="2023-10-06T13:45:51.829Z" agent="Mozilla/5.0 (Macintosh; Intel Mac OS X 10_15_7) AppleWebKit/537.36 (KHTML, like Gecko) Chrome/116.0.0.0 Safari/537.36" version="22.0.3" etag="fyZa18rz-mWaCltlphqc" type="github">
  <diagram name="第 1 页" id="nIHD6ufU-457H2urz9MH">
    <mxGraphModel>
      <root>
        <mxCell id="0" />
        <mxCell id="1" parent="0" />
      </root>
    </mxGraphModel>
  </diagram>
</mxfile>
